# xmcd
#
# Track frame offsets:
#	150
#	11981
#	23905
#	38547
#	50604
#	65337
#	77593
#	85636
#	97609
#	107759
#	122989
#
# Disc length: 1878
#
# Revision: 1
# Processed by: cddbd v1.5.1PL0 Copyright (c) Steve Scherf et al.
# Submitted via: FreeRIP 2.91 
# Normalized: r0:TDELIM( - ),TSWAP
#
DISCID=7c07540b
DTITLE=Gospel Music - More Southern Gospel Classics - Volume 3
DYEAR=1900
DGENRE=Gospel
TTITLE0=Blackwood Bros - Lead Me To That Rock
TTITLE1=Roy Drusky - At The Cross
TTITLE2=Kingsmen - Release Me From My Sin
TTITLE3=Hovie Lister and Statesmen - Why Should I Worry Or Fret
TTITLE4=Masters V - All In The Blood
TTITLE5=Oak Ridge Boys - When I Lay My Burdens Down
TTITLE6=Dave Dudley - I'll Fly Away
TTITLE7=Speers - Somebody Loves Me
TTITLE8=JD Sumner and Stamps - He Touched Me
TTITLE9=Blackwood Bros - One Day At A Time
TTITLE10=JD Sumner and Stamps - Amazing Grace
EXTD=
EXTT0=
EXTT1=
EXTT2=
EXTT3=
EXTT4=
EXTT5=
EXTT6=
EXTT7=
EXTT8=
EXTT9=
EXTT10=
PLAYORDER=
